<svg xmlns="http://www.w3.org/2000/svg" xmlns:xlink="http://www.w3.org/1999/xlink" viewBox="0 0 2401.85 3517.51"><defs><style>.cls-1{fill:url(#radial-gradient);}.cls-2{fill:url(#linear-gradient);}.cls-3{fill:url(#linear-gradient-2);}.cls-4{fill:url(#linear-gradient-3);}.cls-5{fill:url(#linear-gradient-4);}.cls-6{fill:url(#linear-gradient-5);}.cls-7{fill:url(#linear-gradient-6);}.cls-8{fill:url(#linear-gradient-7);}.cls-9{fill:url(#linear-gradient-8);}.cls-10{fill:url(#linear-gradient-9);}.cls-11{fill:url(#linear-gradient-10);}.cls-12{fill:url(#linear-gradient-11);}.cls-13{fill:url(#linear-gradient-12);}.cls-14{fill:url(#linear-gradient-13);}.cls-15{fill:url(#linear-gradient-14);}.cls-16{fill:url(#linear-gradient-15);}.cls-17{fill:url(#linear-gradient-16);}.cls-18{fill:url(#linear-gradient-17);}.cls-19{fill:url(#linear-gradient-18);}.cls-20{fill:url(#linear-gradient-19);}.cls-21{fill:url(#linear-gradient-20);}.cls-22{fill:url(#linear-gradient-21);}.cls-23{fill:url(#linear-gradient-22);}.cls-24{fill:url(#linear-gradient-23);}.cls-25{fill:url(#linear-gradient-24);}.cls-26{fill:url(#linear-gradient-25);}.cls-27{fill:url(#linear-gradient-26);}.cls-28{fill:url(#linear-gradient-27);}.cls-29{fill:url(#linear-gradient-28);}.cls-30{fill:url(#linear-gradient-29);}.cls-31{fill:url(#linear-gradient-30);}.cls-32{fill:url(#linear-gradient-31);}.cls-33{fill:url(#linear-gradient-32);}.cls-34{fill:url(#linear-gradient-33);}.cls-35{fill:url(#linear-gradient-34);}.cls-36{fill:url(#linear-gradient-35);}.cls-37{fill:url(#linear-gradient-36);}.cls-38{fill:url(#linear-gradient-37);}.cls-39{fill:url(#linear-gradient-38);}.cls-40{fill:url(#linear-gradient-39);}.cls-41{fill:url(#linear-gradient-40);}</style><radialGradient id="radial-gradient" cx="1522.71" cy="2418.74" r="0.01" gradientUnits="userSpaceOnUse"><stop offset="0" stop-color="#40ffff"/><stop offset="0.13" stop-color="#34dddd"/><stop offset="0.34" stop-color="#22a8aa"/><stop offset="0.55" stop-color="#137e81"/><stop offset="0.73" stop-color="#096063"/><stop offset="0.89" stop-color="#024e51"/><stop offset="1" stop-color="#00474b"/></radialGradient><linearGradient id="linear-gradient" x1="2297.67" y1="1159.75" x2="2177.32" y2="1759.25" gradientUnits="userSpaceOnUse"><stop offset="0" stop-color="#004769"/><stop offset="1" stop-color="#003440"/></linearGradient><linearGradient id="linear-gradient-2" x1="1546.87" y1="3099.39" x2="1333.83" y2="1911.79" gradientUnits="userSpaceOnUse"><stop offset="0" stop-color="#005976"/><stop offset="1" stop-color="#004365"/></linearGradient><linearGradient id="linear-gradient-3" x1="1567.17" y1="1178" x2="1694.31" y2="1628.28" gradientUnits="userSpaceOnUse"><stop offset="0" stop-color="#05a6da"/><stop offset="1" stop-color="#002d47"/></linearGradient><linearGradient id="linear-gradient-4" x1="1069.06" y1="1129.71" x2="908.55" y2="1651.37" xlink:href="#linear-gradient-3"/><linearGradient id="linear-gradient-5" x1="792.58" y1="1224.39" x2="959.23" y2="3518.31" gradientUnits="userSpaceOnUse"><stop offset="0" stop-color="#003b5b"/><stop offset="1" stop-color="#00ceff"/></linearGradient><linearGradient id="linear-gradient-6" x1="1601.78" y1="2052.34" x2="1968.48" y2="2052.34" gradientUnits="userSpaceOnUse"><stop offset="0" stop-color="#002540"/><stop offset="1" stop-color="#006da0"/></linearGradient><linearGradient id="linear-gradient-7" x1="1814.54" y1="1074.87" x2="2061.95" y2="1441.52" xlink:href="#linear-gradient-3"/><linearGradient id="linear-gradient-8" x1="255.65" y1="1141.61" x2="255.65" y2="2031.27" gradientUnits="userSpaceOnUse"><stop offset="0" stop-color="#003565"/><stop offset="1" stop-color="#00abc9"/></linearGradient><linearGradient id="linear-gradient-9" x1="302.9" y1="1084.78" x2="53.18" y2="1435.95" gradientUnits="userSpaceOnUse"><stop offset="0" stop-color="#4ca8da"/><stop offset="1" stop-color="#2a6c91"/></linearGradient><linearGradient id="linear-gradient-10" x1="889.12" y1="3370.33" x2="478.21" y2="1675.32" gradientUnits="userSpaceOnUse"><stop offset="0" stop-color="#004d78"/><stop offset="1" stop-color="#0399d3"/></linearGradient><linearGradient id="linear-gradient-11" x1="1101.11" y1="2951.07" x2="1376.81" y2="231.66" gradientUnits="userSpaceOnUse"><stop offset="0" stop-color="#0081b3"/><stop offset="1" stop-color="#002d47"/></linearGradient><linearGradient id="linear-gradient-12" x1="1322.83" y1="2986.3" x2="1553.38" y2="3379.82" gradientUnits="userSpaceOnUse"><stop offset="0" stop-color="#002440"/><stop offset="1" stop-color="#033058"/></linearGradient><linearGradient id="linear-gradient-13" x1="1546.88" y1="2744.38" x2="1473.82" y2="3807.04" gradientUnits="userSpaceOnUse"><stop offset="0" stop-color="#001f35"/><stop offset="1" stop-color="#007094"/></linearGradient><linearGradient id="linear-gradient-14" x1="1529.33" y1="1639.83" x2="2253.55" y2="2498.86" gradientUnits="userSpaceOnUse"><stop offset="0" stop-color="#002635"/><stop offset="1" stop-color="#005b87"/></linearGradient><linearGradient id="linear-gradient-15" x1="441.64" y1="2142.31" x2="692.4" y2="1013.92" xlink:href="#linear-gradient-3"/><linearGradient id="linear-gradient-16" x1="987.09" y1="1155.41" x2="987.11" y2="1155.51" gradientUnits="userSpaceOnUse"><stop offset="0" stop-color="#83e8f5"/><stop offset="1" stop-color="#009dd2"/></linearGradient><linearGradient id="linear-gradient-17" x1="987.16" y1="1155.4" x2="987.18" y2="1155.54" xlink:href="#linear-gradient-16"/><linearGradient id="linear-gradient-18" x1="777.05" y1="1156.11" x2="777.48" y2="1154.76" gradientUnits="userSpaceOnUse"><stop offset="0" stop-color="#007da5"/><stop offset="1" stop-color="#1ab8d7"/></linearGradient><linearGradient id="linear-gradient-19" x1="2035.67" y1="1157.5" x2="2035.67" y2="766.48" gradientUnits="userSpaceOnUse"><stop offset="0" stop-color="#007da5"/><stop offset="1" stop-color="#48e4ff"/></linearGradient><linearGradient id="linear-gradient-20" x1="1286.25" y1="768.92" x2="1254.74" y2="1226.77" gradientUnits="userSpaceOnUse"><stop offset="0" stop-color="#13dbff"/><stop offset="1" stop-color="#0064a5"/></linearGradient><linearGradient id="linear-gradient-21" x1="1399.51" y1="1155.4" x2="1399.49" y2="1155.48" gradientUnits="userSpaceOnUse"><stop offset="0" stop-color="#2b84ae"/><stop offset="1" stop-color="#11688b"/></linearGradient><linearGradient id="linear-gradient-22" x1="1541.95" y1="647.53" x2="1421.14" y2="1145.89" gradientUnits="userSpaceOnUse"><stop offset="0" stop-color="#85e3f5"/><stop offset="1" stop-color="#32c8ef"/></linearGradient><linearGradient id="linear-gradient-23" x1="1142.76" y1="971.63" x2="1373.13" y2="-168.5" gradientUnits="userSpaceOnUse"><stop offset="0" stop-color="#84f0ff"/><stop offset="1" stop-color="#efefef"/></linearGradient><linearGradient id="linear-gradient-24" x1="1063.31" y1="5946.65" x2="1537.35" y2="5472.6" gradientTransform="matrix(1, 0, 0, -1, 0, 6240.43)" gradientUnits="userSpaceOnUse"><stop offset="0" stop-color="#98e5ef"/><stop offset="1" stop-color="#58dcf5"/></linearGradient><linearGradient id="linear-gradient-25" x1="879.9" y1="1173.83" x2="882.26" y2="738.06" gradientUnits="userSpaceOnUse"><stop offset="0" stop-color="#30d9fb"/><stop offset="1" stop-color="#b2f0f6"/></linearGradient><linearGradient id="linear-gradient-26" x1="980.68" y1="1155.4" x2="980.7" y2="1155.54" xlink:href="#linear-gradient-16"/><linearGradient id="linear-gradient-27" x1="936.41" y1="368.7" x2="1150.55" y2="1768.79" xlink:href="#linear-gradient-16"/><linearGradient id="linear-gradient-28" x1="780.54" y1="1101.03" x2="984.71" y2="446.13" xlink:href="#linear-gradient-19"/><linearGradient id="linear-gradient-29" x1="1620.16" y1="1186.42" x2="1620.16" y2="688.41" gradientUnits="userSpaceOnUse"><stop offset="0" stop-color="#0064a5"/><stop offset="1" stop-color="#13dbff"/></linearGradient><linearGradient id="linear-gradient-30" x1="1752.58" y1="1161.36" x2="1752.58" y2="808.16" xlink:href="#linear-gradient-19"/><linearGradient id="linear-gradient-31" x1="1945.97" y1="1154.99" x2="1795.67" y2="630.85" xlink:href="#linear-gradient-29"/><linearGradient id="linear-gradient-32" x1="863.65" y1="5966.9" x2="1067.33" y2="5763.21" gradientTransform="matrix(1, 0, 0, -1, 0, 6240.43)" gradientUnits="userSpaceOnUse"><stop offset="0" stop-color="#d1f7ff"/><stop offset="1" stop-color="#ecfaff"/></linearGradient><linearGradient id="linear-gradient-33" x1="1193.39" y1="5514.9" x2="1163.65" y2="6357.61" xlink:href="#linear-gradient-32"/><linearGradient id="linear-gradient-34" x1="1311.26" y1="538.75" x2="994.34" y2="-229.54" gradientTransform="matrix(1, 0, 0, 1, 0, 0)" xlink:href="#linear-gradient-24"/><linearGradient id="linear-gradient-35" x1="-1179.64" y1="3856.58" x2="-1168.23" y2="3845.18" gradientTransform="translate(40160.5 -65031.87) scale(33 17)" xlink:href="#linear-gradient-32"/><linearGradient id="linear-gradient-36" x1="1569.24" y1="675.27" x2="1569.24" y2="246.36" gradientUnits="userSpaceOnUse"><stop offset="0" stop-color="#27d9ff"/><stop offset="1" stop-color="#2799a0"/></linearGradient><linearGradient id="linear-gradient-37" x1="406.44" y1="999.88" x2="414.93" y2="1160.68" gradientUnits="userSpaceOnUse"><stop offset="0" stop-color="#b0f1ff"/><stop offset="1" stop-color="#9eefff"/></linearGradient><linearGradient id="linear-gradient-38" x1="2026.83" y1="1155.44" x2="2026.83" y2="1155.44" gradientUnits="userSpaceOnUse"><stop offset="0" stop-color="#189dcc"/><stop offset="1" stop-color="#006f83"/></linearGradient><linearGradient id="linear-gradient-39" x1="1893.92" y1="960.62" x2="1893.8" y2="961.12" xlink:href="#linear-gradient-22"/><linearGradient id="linear-gradient-40" x1="655.71" y1="1129.64" x2="655.71" y2="577.34" xlink:href="#linear-gradient-25"/></defs><g id="Layer_2" data-name="Layer 2"><g id="island"><polygon class="cls-1" points="1522.71 2418.74 1522.71 2418.75 1522.7 2418.74 1522.71 2418.74"/><path class="cls-2" d="M2401.61,1573.07l-207.26,230.62a.94.94,0,0,1-1.64-.52l.23-446.62-.18-.55c-2.47-6.63-35-114.26-70.67-200.56-3.51-8.49-7.06,8.59-10.61,0H2249.2l152.59,416.69A.9.9,0,0,1,2401.61,1573.07Z"/><polygon class="cls-3" points="1443.34 1155.44 1426.46 2087.99 1426.49 2088.03 1426.45 2087.99 1423.57 2412.53 1086.27 3044.06 1243.61 3256.56 1450.6 2798.89 1601.78 2489.8 1601.77 2489.78 1601.78 2489.79 1712.11 1508.24 1443.34 1155.44"/><polygon class="cls-4" points="1712.11 1508.24 1443.66 1155.44 1443.34 1155.44 1445.21 1155.44 1444.92 1155.44 1677.9 1155.44 1678.14 1155.44 1678.19 1155.44 1678.27 1155.44 1712.11 1508.24"/><polygon class="cls-5" points="1137.24 1155.44 1137.05 1155.44 1137.04 1155.44 986.86 1452.57 984.75 1456.67 984.75 1155.44 986.5 1155.44 986.65 1155.44 986.79 1155.44 1137.53 1155.44 1136.76 1155.44 1137.24 1155.44"/><polygon class="cls-6" points="992.35 2213.03 936.15 2949.22 936.07 2948.93 666.37 2231.54 766.84 1155.44 766.86 1155.44 772.16 1155.44 772.51 1155.44 986.46 1155.44 986.65 1155.44 986.66 1155.44 986.95 1155.44 984.75 1155.44 986.86 1452.57 992.35 2213.03"/><polygon class="cls-7" points="1915.08 1155.44 1914.99 1155.44 1914.87 1155.44 1914.36 1155.44 1826.28 1155.44 1677.9 1155.44 1678.14 1155.44 1678.19 1155.44 1678.27 1155.44 1712.11 1508.24 1601.78 2489.79 1601.78 2489.8 1613.33 2715.22 1625.32 2949.24 1625.33 2949.22 1625.33 2949.21 1939.85 1856.17 1968.48 1371.43 1915.08 1155.44"/><polygon class="cls-8" points="1968.48 1371.43 1826.76 1155.44 1826.71 1155.44 1826.62 1155.44 1826.28 1155.44 1914.36 1155.44 1914.87 1155.44 1914.99 1155.44 1915.08 1155.44 1968.48 1371.43"/><polygon class="cls-9" points="421.65 2057.08 421.65 2057.09 421.64 2057.08 34.83 1518.28 0 1315.08 197.76 1155.44 196.71 1155.44 197.75 1155.44 511.29 1155.44 511.04 1155.44 511.01 1155.44 421.65 2057.08"/><path class="cls-10" d="M0,1315.08l197.76-159.64H390.44c.84,0,1.48-.83,1.35,0Z"/><polygon class="cls-11" points="936.15 2949.24 666.36 2231.54 421.64 2057.08 664.7 2569.57 935.28 3348.75 936.15 2949.24"/><polygon class="cls-12" points="1426.46 2087.99 1443.37 1155.44 1445.28 1155.44 1445.21 1155.44 1444.93 1155.44 1137.54 1155.44 1136.77 1155.44 1136.76 1155.44 1136.58 1155.44 1137.05 1155.44 986.86 1452.57 984.75 1456.67 992.35 2213.02 992.35 2213.03 936.15 2949.24 935.28 3348.75 1086.27 3044.06 1423.57 2412.53 1426.45 2087.99 1426.46 2087.99"/><polygon class="cls-13" points="1243.61 3256.56 1450.6 2798.89 1459.97 3517.51 1243.61 3256.56"/><polygon class="cls-14" points="1601.78 2489.8 1450.6 2798.89 1459.97 3517.51 1625.33 2949.24 1601.78 2489.8"/><polygon class="cls-15" points="2192.94 1805.25 2215.32 1423.41 2215.32 1423.41 2128.85 1155.44 2127.58 1155.44 2127.57 1155.44 2125.57 1155.44 2124.82 1155.44 1914.36 1155.44 1914.87 1155.44 1914.99 1155.44 1915.09 1155.44 1968.48 1371.43 1939.85 1856.17 1625.33 2949.21 2139.41 2133.46 2192.95 1805.26 2192.94 1805.25"/><polygon class="cls-16" points="767.1 1155.44 766.9 1155.44 766.86 1155.44 766.83 1155.44 666.37 2231.54 421.65 2057.09 421.65 2057.08 421.64 2057.08 339.31 1502.32 510.98 1155.44 511.04 1155.44 511.29 1155.44 767.1 1155.44"/><polygon class="cls-17" points="987.26 1155.44 987.13 1155.44 987.12 1155.44 986.94 1155.44 987.26 1155.44"/><polygon class="cls-18" points="986.98 1155.44 987.13 1155.44 987.41 1155.44 986.92 1155.44 986.98 1155.44"/><polygon class="cls-19" points="780 1155.44 779.66 1155.44 779.58 1155.44 774.53 1155.44 774.57 1155.44 774.76 1155.44 780 1155.44"/><path class="cls-20" d="M2138.46,1155.44H2012.79c-38.5-93-78-189.83-79.76-194.13l-.07-.15a1,1,0,0,1-.06-.58l59.39-234.25a.86.86,0,0,1,1.65-.05l143.73,429.16h.79Z"/><polygon class="cls-21" points="1401.18 1155.44 1118.11 1155.44 1118.28 1155.44 1118.29 1155.44 1325.67 731.25 1401.11 1155.44 1401.18 1155.44"/><polygon class="cls-22" points="1399.7 1155.44 1399.31 1155.44 1399.4 1155.44 1399.7 1155.44"/><polygon class="cls-23" points="1614.82 1155.44 1517.11 1155.44 1399.7 1155.44 1399.4 1155.44 1401.11 1155.44 1325.67 731.25 1489.35 612.68 1489.35 612.68 1489.36 612.68 1550.4 724.6 1614.7 1155.44 1614.75 1155.44 1614.82 1155.44"/><polygon class="cls-24" points="1118.72 1155.44 1118.55 1155.44 978.9 1155.44 978.9 1155.44 980.5 1155.44 980.64 1155.44 1060.85 712.17 1325.67 731.25 1118.28 1155.44 1118.72 1155.44"/><polygon class="cls-25" points="1325.67 731.24 1213.81 637.55 1181.03 383.46 1290.29 327.5 1485.59 572.28 1489.34 612.68 1325.67 731.24"/><polygon class="cls-26" points="980.92 1155.44 779.08 1155.44 779.1 1155.44 783.97 1155.44 876.21 735.72 980.64 1155.44 980.65 1155.44 980.92 1155.44"/><polygon class="cls-27" points="980.92 1155.44 980.45 1155.44 980.5 1155.44 980.65 1155.44 980.92 1155.44"/><polygon class="cls-28" points="1060.85 421.62 1060.85 712.17 980.65 1155.44 980.64 1155.44 876.21 735.72 924.28 699.73 1060.85 421.62"/><polygon class="cls-29" points="1060.85 421.62 924.28 699.73 876.21 735.72 783.97 1155.44 783.89 1155.44 779.1 1155.44 779.14 1155.44 833.7 710.85 833.71 710.85 1060.85 421.62"/><polygon class="cls-30" points="1750.98 1155.44 1614.75 1155.44 1614.7 1155.44 1550.4 724.6 1489.36 612.68 1489.35 612.68 1489.35 612.68 1652.9 585.67 1673.19 799.23 1750.85 1155.44 1750.93 1155.44 1750.98 1155.44"/><polygon class="cls-31" points="1831.96 1155.44 1750.93 1155.44 1750.85 1155.44 1673.19 799.23 1776.72 982.08 1831.77 1155.44 1831.88 1155.44 1831.96 1155.44"/><polygon class="cls-32" points="2026.93 1155.44 1831.88 1155.44 1831.77 1155.44 1776.72 982.08 1673.19 799.23 1652.9 585.67 1993.01 723.51 1992.29 726.33 1932.9 960.58 1932.83 960.88 1932.96 961.15 1933.03 961.31 2024.97 1155.44 2026.81 1155.44 2026.93 1155.44"/><polygon class="cls-33" points="1060.85 421.61 833.7 710.85 632.57 589.53 823.3 533.29 1137.19 0 1060.85 421.61"/><polygon class="cls-34" points="1060.85 712.17 1060.85 421.61 1137.19 0 1181.03 383.46 1213.81 637.55 1325.67 731.24 1060.85 712.17"/><polygon class="cls-35" points="1181.03 383.46 1290.29 327.5 1137.19 0 1181.03 383.46"/><polygon class="cls-36" points="1290.29 327.5 1485.59 572.28 1505.98 283.15 1290.29 327.5"/><polygon class="cls-37" points="1489.34 612.68 1485.59 572.28 1505.98 283.15 1652.9 585.66 1489.34 612.68"/><polygon class="cls-38" points="544.53 1155.44 544.5 1155.44 544.52 1155.44 250.29 1155.44 298.12 1063 570.22 988.87 544.53 1155.44"/><polygon class="cls-39" points="2026.93 1155.44 2026.73 1155.44 2026.81 1155.44 2026.93 1155.44"/><path class="cls-40" d="M1893.89,961.16l-.13-.28.08-.3A.89.89,0,0,0,1893.89,961.16Z"/><polygon class="cls-41" points="833.7 710.85 779.14 1155.44 779.1 1155.44 555.34 1155.44 544.47 1155.44 477.73 1155.44 570.22 988.87 632.56 589.53 833.7 710.85"/></g></g></svg>